<svg width="25" height="26" viewBox="0 0 25 26" fill="none" xmlns="http://www.w3.org/2000/svg">
<path d="M12.5898 3.34381C13.77 3.37754 14.935 3.62633 16.0272 4.07875C17.2049 4.56657 18.275 5.28159 19.1764 6.18297C20.0778 7.08435 20.7928 8.15444 21.2806 9.33215C21.7685 10.5099 22.0195 11.7721 22.0195 13.0469C22.0195 14.3216 21.7685 15.5839 21.2806 16.7616C20.7928 17.9393 20.0778 19.0094 19.1764 19.9108C18.275 20.8122 17.2049 21.5272 16.0272 22.015C14.935 22.4674 13.77 22.7162 12.5898 22.7499V3.34381ZM12.3125 1.12109C9.14959 1.12109 6.11622 2.37756 3.8797 4.61407C1.64318 6.85059 0.386719 9.88396 0.386719 13.0469C0.386719 16.2098 1.64318 19.2432 3.8797 21.4797C6.11622 23.7162 9.14959 24.9727 12.3125 24.9727C15.4754 24.9727 18.5088 23.7162 20.7453 21.4797C22.9818 19.2432 24.2383 16.2098 24.2383 13.0469C24.2383 9.88396 22.9818 6.85059 20.7453 4.61407C18.5088 2.37756 15.4754 1.12109 12.3125 1.12109Z" fill="#B3B3B3" stroke="#B3B3B3" stroke-width="0.554688"/>
</svg>
