<svg width="26" height="24" viewBox="0 0 26 24" fill="none" xmlns="http://www.w3.org/2000/svg">
<path d="M25.2051 5.30861C24.8124 4.39935 24.2462 3.57538 23.5381 2.88283C22.8295 2.18822 21.994 1.63622 21.0771 1.25686C20.1264 0.861914 19.1067 0.65976 18.0771 0.66213C16.6328 0.66213 15.2236 1.05764 13.999 1.80471C13.7061 1.98342 13.4277 2.17971 13.1641 2.39358C12.9004 2.17971 12.6221 1.98342 12.3291 1.80471C11.1045 1.05764 9.69531 0.66213 8.25098 0.66213C7.21094 0.66213 6.20312 0.861349 5.25098 1.25686C4.33105 1.63772 3.50195 2.18557 2.79004 2.88283C2.08104 3.5746 1.51468 4.39876 1.12305 5.30861C0.71582 6.2549 0.507812 7.25979 0.507812 8.29397C0.507812 9.26955 0.707031 10.2862 1.10254 11.3203C1.43359 12.1846 1.9082 13.0811 2.51465 13.9863C3.47559 15.419 4.79688 16.9131 6.4375 18.4278C9.15625 20.9385 11.8486 22.6729 11.9629 22.7432L12.6572 23.1885C12.9648 23.3848 13.3604 23.3848 13.668 23.1885L14.3623 22.7432C14.4766 22.6699 17.166 20.9385 19.8877 18.4278C21.5283 16.9131 22.8496 15.419 23.8105 13.9863C24.417 13.0811 24.8945 12.1846 25.2227 11.3203C25.6182 10.2862 25.8174 9.26955 25.8174 8.29397C25.8203 7.25979 25.6123 6.2549 25.2051 5.30861Z" fill="url(#paint0_linear_1_980)"/>
<defs>
<linearGradient id="paint0_linear_1_980" x1="4.16406" y1="23" x2="24.1641" y2="2.50003" gradientUnits="userSpaceOnUse">
<stop stop-color="#FF5858"/>
<stop offset="1" stop-color="#F857A6"/>
</linearGradient>
</defs>
</svg>
