<svg width="22" height="23" viewBox="0 0 22 23" fill="none" xmlns="http://www.w3.org/2000/svg">
<path d="M10.9796 7.63616C9.86365 7.63616 8.79337 8.07447 8.00425 8.85465C7.21513 9.63483 6.7718 10.693 6.7718 11.7963C6.7718 12.8997 7.21513 13.9578 8.00425 14.738C8.79337 15.5182 9.86365 15.9565 10.9796 15.9565C12.0956 15.9565 13.1659 15.5182 13.955 14.738C14.7442 13.9578 15.1875 12.8997 15.1875 11.7963C15.1875 10.693 14.7442 9.63483 13.955 8.85465C13.1659 8.07447 12.0956 7.63616 10.9796 7.63616ZM8.17442 11.7963C8.17442 11.0608 8.46997 10.3553 8.99605 9.8352C9.52213 9.31508 10.2356 9.02288 10.9796 9.02288C11.7236 9.02288 12.4372 9.31508 12.9632 9.8352C13.4893 10.3553 13.7849 11.0608 13.7849 11.7963C13.7849 12.5319 13.4893 13.2373 12.9632 13.7574C12.4372 14.2776 11.7236 14.5698 10.9796 14.5698C10.2356 14.5698 9.52213 14.2776 8.99605 13.7574C8.46997 13.2373 8.17442 12.5319 8.17442 11.7963ZM8.45157 22.595C9.28136 22.7908 10.1308 22.8895 10.9836 22.8895C11.8345 22.8886 12.6824 22.7892 13.51 22.5933C13.7275 22.5415 13.9236 22.4247 14.0716 22.2587C14.2196 22.0928 14.3122 21.8858 14.3369 21.6659L14.5266 19.9624C14.5586 19.6578 14.6996 19.3745 14.9241 19.1635C15.1486 18.9525 15.442 18.8276 15.7513 18.8115C15.9572 18.8026 16.162 18.8409 16.3505 18.9224L17.9254 19.6052C18.0623 19.6661 18.2106 19.698 18.3607 19.699C18.5108 19.6999 18.6595 19.6699 18.7972 19.6108C18.9358 19.5525 19.0598 19.466 19.1619 19.3567C20.3199 18.1227 21.1844 16.6485 21.6922 15.0418C21.7587 14.8287 21.7567 14.6004 21.6863 14.3884C21.616 14.1765 21.4808 13.9914 21.2995 13.8586L19.9003 12.838C19.7336 12.7184 19.598 12.5614 19.5044 12.3799C19.4109 12.1985 19.3621 11.9977 19.3621 11.7941C19.3621 11.5905 19.4109 11.3897 19.5044 11.2083C19.598 11.0268 19.7336 10.8699 19.9003 10.7502L21.295 9.73177C21.4768 9.59879 21.6123 9.41321 21.6826 9.20072C21.753 8.98824 21.7548 8.75938 21.6877 8.54585C21.1797 6.93896 20.3142 5.46495 19.1546 4.23205C19.001 4.0697 18.8002 3.95849 18.5799 3.91378C18.3596 3.86907 18.1307 3.89306 17.9248 3.98244L16.3505 4.66803C16.1878 4.7407 16.0105 4.77897 15.831 4.77897C15.5078 4.77834 15.1963 4.65979 14.9561 4.44606C14.7159 4.23233 14.5639 3.93845 14.5294 3.62078L14.3386 1.92344C14.3142 1.70066 14.22 1.49101 14.0691 1.32381C13.9182 1.15662 13.7182 1.04026 13.497 0.991008C12.6737 0.80927 11.8334 0.712789 10.9897 0.703125C10.1404 0.712817 9.29427 0.809479 8.46504 0.991562C8.24419 1.04053 8.04434 1.15652 7.89345 1.32331C7.74256 1.49009 7.64816 1.69934 7.62347 1.92177L7.43271 3.62023C7.39672 3.9384 7.24331 4.23228 7.00183 4.4456C6.7554 4.65258 6.44479 4.77001 6.12155 4.77841C5.94327 4.7783 5.76695 4.74166 5.60371 4.6708L4.03278 3.98521C3.8262 3.89503 3.59633 3.87072 3.37513 3.91565C3.15392 3.96058 2.95237 4.07253 2.79849 4.23593C1.64052 5.46911 0.776007 6.9426 0.268173 8.54863C0.201087 8.76207 0.202853 8.99086 0.273226 9.20327C0.343599 9.41567 0.479091 9.60116 0.660904 9.73399L2.05678 10.7524C2.30614 10.9346 2.48236 11.1981 2.55433 11.4963C2.62629 11.7944 2.58937 12.1082 2.45008 12.3821C2.35745 12.5637 2.22292 12.7212 2.05735 12.8419L0.660343 13.862C0.478688 13.9947 0.343291 14.18 0.272922 14.3922C0.202552 14.6044 0.200697 14.833 0.267612 15.0462C0.774547 16.6538 1.63913 18.1287 2.79792 19.3628C2.95101 19.5261 3.15181 19.6382 3.37236 19.6833C3.59291 19.7285 3.82221 19.7045 4.0283 19.6146L5.60932 18.9285C5.77258 18.8575 5.94875 18.8209 6.12716 18.8209H6.13165C6.4536 18.8213 6.76415 18.9388 7.00417 19.1509C7.2442 19.363 7.39692 19.655 7.43328 19.9713L7.62291 21.667C7.64761 21.8872 7.74045 22.0945 7.88876 22.2606C8.03707 22.4267 8.23362 22.5434 8.45157 22.595ZM12.9758 21.2942C11.663 21.5716 10.3053 21.5716 8.99242 21.2942L8.82186 19.8177C8.74771 19.1625 8.43219 18.5572 7.9355 18.1173C7.4388 17.6773 6.7957 17.4336 6.12885 17.4325H6.12324C5.75132 17.431 5.38321 17.5066 5.04266 17.6544L3.67035 18.2496C2.78013 17.2569 2.10089 16.0973 1.67303 14.8399L2.88769 13.9524C3.22999 13.7029 3.50822 13.3773 3.69996 13.002C3.89171 12.6267 3.9916 12.2121 3.9916 11.7916C3.9916 11.3711 3.89171 10.9565 3.69996 10.5812C3.50822 10.2059 3.22999 9.88036 2.88769 9.63082L1.67359 8.74332C2.10226 7.48729 2.78165 6.32914 3.67147 5.33754L5.03593 5.93216C5.37704 6.08173 5.74616 6.15865 6.11931 6.15792H6.12492C6.79335 6.15655 7.43789 5.91198 7.93561 5.47085C8.43333 5.02971 8.7494 4.42289 8.82355 3.76611L8.99186 2.29064C9.65006 2.16024 10.3191 2.09042 10.9903 2.08208C11.6563 2.0904 12.32 2.15973 12.973 2.29009L13.1413 3.765C13.2133 4.42175 13.528 5.02912 14.0249 5.4707C14.5219 5.91228 15.1662 6.15699 15.8344 6.15792C16.2112 6.16673 16.5849 6.08887 16.9262 5.9305L18.2895 5.33643C19.1799 6.32796 19.8595 7.48636 20.2879 8.74277L19.0778 9.62638C18.733 9.8748 18.4525 10.2002 18.2592 10.5762C18.0658 10.9521 17.965 11.3679 17.965 11.7897C17.965 12.2114 18.0658 12.6272 18.2592 13.0031C18.4525 13.3791 18.733 13.7045 19.0778 13.9529L20.2924 14.8404C19.8635 16.0962 19.1844 17.2543 18.2951 18.2462L16.9262 17.6527C16.5364 17.4818 16.1113 17.4044 15.6856 17.4268C15.2598 17.4492 14.8455 17.5709 14.4764 17.7818C14.1072 17.9927 13.7938 18.287 13.5615 18.6405C13.3293 18.994 13.185 19.3968 13.1402 19.816L12.9758 21.2942Z" fill="#B3B3B3"/>
</svg>
